<svg width="43" height="30" viewBox="0 0 43 30" fill="none" xmlns="http://www.w3.org/2000/svg">
<path d="M41.5108 8.9243C42.2858 8.9243 43.359 8.9243 42.8821 10.2491C42.4051 11.5136 40.0798 12.1158 40.7357 12.1158C41.4511 12.0555 42.1666 12.2964 41.8685 13.5007C41.8089 13.862 41.8089 14.2233 41.5704 14.4642C41.5704 15.0664 41.2723 15.6083 40.8549 16.0298C40.4972 16.3911 40.0798 16.6922 39.6625 16.9331C40.0798 16.9933 40.4972 17.1137 40.9145 17.2944C41.0934 17.3546 41.153 18.2578 40.9742 19.1009C40.9145 19.703 40.6164 20.245 40.0798 20.546C39.5432 20.8471 38.947 20.9676 38.4104 20.9073C37.8738 20.8471 37.6354 21.088 37.1584 21.088C36.9795 21.3289 39.2451 21.3891 38.947 21.5095C40.6164 21.6902 39.4836 21.8708 41.153 22.1719C42.0474 22.3525 42.4051 23.0751 41.8685 23.9784C41.5704 24.3999 41.2127 24.701 40.7357 24.8816C40.9742 24.9418 41.0934 25.0021 41.3319 25.0623C42.2262 25.1827 42.5243 25.7246 41.9877 26.6279C41.63 27.1096 41.0934 27.5311 40.5568 27.7118C40.0202 28.0731 39.424 28.3139 38.8278 28.4344C38.0527 28.4344 37.2776 27.9526 36.5025 27.9526C35.7871 27.9526 35.012 28.0129 34.2369 28.0129C33.4618 27.9526 32.7464 27.9526 31.9713 27.8924C31.1962 27.8924 30.4211 28.1935 29.6461 28.1935C28.9306 28.2537 28.2151 28.3139 27.4997 28.3742C26.7842 28.4946 26.0688 28.5548 25.3533 28.6752C24.6378 28.7355 23.8628 28.4946 23.1473 28.615C22.4318 28.6752 21.8356 29.2774 21.0605 29.3978C20.3451 29.5183 19.6296 29.2774 18.8545 29.3376C18.1391 29.3978 17.4832 29.6989 16.7082 29.7591C15.9927 29.7591 15.2772 30 14.5618 30C13.8463 30 13.1309 29.7591 12.4154 29.6989C11.6999 29.6387 10.9249 29.5785 10.2094 29.4581C9.3747 29.5183 8.53999 29.4581 7.70529 29.3376C6.75135 29.0968 6.03589 28.4946 6.09551 27.5913C6.15513 26.6279 6.33399 26.0859 6.81097 25.9655C7.28794 25.7849 8.06302 26.1462 8.77848 25.9053C8.48037 25.6042 8.24189 25.1827 8.0034 24.8214C7.88416 24.5805 7.82453 24.3397 7.82453 24.0988C6.87059 23.7375 7.64567 22.473 8.06302 22.1117C8.18226 21.9912 8.30151 21.6902 8.42075 21.6299C7.76491 21.8708 7.22832 22.2923 6.75134 22.4127C6.09551 22.5332 5.49929 22.5934 4.90307 22.5332C4.36648 22.5934 3.77026 22.473 3.0548 22.473C2.51821 22.473 1.86237 22.8945 1.14691 22.8945C0.431452 22.8945 -0.224386 20.7869 0.073722 19.9439C0.312209 19.2213 1.44502 18.86 2.16048 18.6191C1.56426 18.2578 1.98161 17.4148 2.33934 17.0535C2.69707 16.632 3.11443 16.3309 3.5914 16.09C4.00875 15.789 4.54534 15.6083 5.08194 15.4879C5.20118 15.4879 5.20118 15.6083 5.32043 15.6083C4.48572 15.1266 4.90307 14.1631 5.67816 13.561C6.27437 13.1394 6.93021 12.7781 7.58605 12.5373C7.10908 12.4771 6.69172 12.3566 6.21475 12.176C5.61853 11.9351 5.7974 11.2125 6.03588 10.7308C5.2608 10.6706 4.48572 10.4899 3.71064 10.3093C2.69707 9.88776 3.65102 8.62322 4.06837 8.20171C4.48572 7.78019 5.02232 7.53933 5.55891 7.35868C6.09551 7.11781 6.69172 6.99738 7.22832 6.93716C7.34756 6.93716 7.52643 6.81673 7.64567 6.81673C7.10908 6.6963 6.57248 6.51565 6.09551 6.335C5.32043 6.03392 5.49929 5.37154 5.85702 4.82959C5.49929 4.16721 5.38005 3.44462 5.49929 2.66181C5.55891 1.879 5.85702 1.21662 6.33399 0.614455C6.87059 0.132724 7.58605 -0.0479268 8.30151 0.0122887C9.01697 0.0122887 9.73243 0.0725075 10.4479 0.132723C11.1633 0.132723 11.9384 -0.0479268 12.6539 0.0122887C13.3693 0.0725078 14.0848 0.253155 14.8003 0.313374C15.5157 0.433805 16.2312 0.433804 17.0063 0.554235C17.7217 0.614454 18.4372 0.674671 19.1526 0.734886C19.8681 0.795104 20.5836 1.09618 21.299 1.09618C22.0741 1.1564 22.7896 1.09618 23.505 1.03597C24.1609 1.03597 24.8167 1.1564 25.4129 1.1564C26.0688 1.09618 26.7246 0.674671 27.3208 0.674671C27.9766 0.674671 28.6325 1.03597 29.2883 0.975751C29.8845 0.975751 30.5404 0.674671 31.1962 0.674671C31.9117 0.674671 32.6271 0.734885 33.3426 0.855318C33.9984 1.09618 34.7139 1.33705 35.3697 1.5177C36.1448 1.5177 36.8603 1.33705 37.5161 1.03597C37.9931 0.855319 40.0798 0.132723 40.3183 1.33705C40.3779 1.63813 40.0798 3.7457 40.3183 3.7457C41.0338 3.62527 41.2127 4.64894 41.0338 5.55219C40.7953 6.21457 40.4376 6.87695 40.0202 7.41889C39.6625 7.96084 40.9145 8.32214 40.3183 8.563C41.2723 8.563 40.5568 8.9243 41.5108 8.9243ZM39.1259 16.8729H39.3048C39.3048 16.8729 39.2451 16.8729 39.1259 16.8729Z" fill="black"/>
</svg>
